<svg xmlns="http://www.w3.org/2000/svg" width="8" height="8" style=""><rect id="backgroundrect" width="100%" height="100%" x="0" y="0" fill="none" stroke="none"/>
  
<g class="currentLayer" style=""><title>Layer 1</title><path d="M4.03,1 c-2.5300000000000002,0 -4.03,3 -4.03,3 s1.5,3 4.03,3 c2.47,0 3.9699999999999998,-3 3.9699999999999998,-3 s-1.5,-3 -3.9699999999999998,-3 zm-0.030000000000000006,1 c1.11,0 2,0.9 2,2 c0,1.11 -0.8900000000000001,2 -2,2 c-1.1,0 -2,-0.8900000000000001 -2,-2 c0,-1.1 0.9,-2 2,-2 zm0,1 c-0.55,0 -1,0.45 -1,1 s0.45,1 1,1 s1,-0.45 1,-1 c0,-0.1 -0.04000000000000001,-0.19000000000000003 -0.06000000000000001,-0.28 c-0.08000000000000002,0.16000000000000003 -0.24000000000000002,0.28 -0.44000000000000006,0.28 c-0.28,0 -0.5,-0.22000000000000003 -0.5,-0.5 c0,-0.2 0.12000000000000001,-0.36000000000000004 0.28,-0.44000000000000006 c-0.09000000000000002,-0.030000000000000006 -0.18000000000000002,-0.06000000000000001 -0.28,-0.06000000000000001 z" id="svg_1" class="" fill="#b6b6b6" fill-opacity="1"/><path fill="#b6b6b6" fill-opacity="1" stroke="#000000" stroke-opacity="1" stroke-width="1" stroke-dasharray="none" stroke-linejoin="miter" stroke-linecap="butt" stroke-dashoffset="" fill-rule="nonzero" opacity="1" marker-start="" marker-mid="" marker-end="" d="M5.795918367346935,4.571428571428562L5.877551020408156,4.571428571428562" id="svg_3"/></g></svg>